name rise42.5664peak47.7979fall81.9185.mot
datacolumns 19
datarows 17
range 14.30327400000000 14.32994400000000
endheader
time	ground_force1_vx	ground_force1_vy	ground_force1_vz	ground_force1_px	ground_force1_py	ground_force1_pz	ground_force2_vx	ground_force2_vy	ground_force2_vz	ground_force2_px	ground_force2_py	ground_force2_pz	ground_torque1_x	ground_torque1_y	ground_torque1_z	ground_torque2_x	ground_torque2_y	ground_torque2_z	
14.30327400000000	-42.52085600000000	804.86125900000002	54.08225200000000	0.09529500000000	0.00000000000000	0.10989500000000	-0.99305000000000	3.63630600000000	0.82957000000000	0.00000000000000	0.00000000000000	0.00000000000000	0.00000000000000	19.03227300000000	0.00000000000000	0.00000000000000	0.22779800000000	0.00000000000000	
14.30495400000000	-42.75821800000000	802.67274399999997	54.01241900000000	0.09473800000000	0.00000000000000	0.10981600000000	-1.59086100000000	7.09261700000000	1.41738800000000	0.00000000000000	0.00000000000000	0.00000000000000	0.00000000000000	18.94482800000000	0.00000000000000	0.00000000000000	0.40140600000000	0.00000000000000	
14.30661400000000	-43.01144800000000	800.35713999999996	53.92102100000000	0.09418000000000	0.00000000000000	0.10973400000000	-2.26669400000000	11.28049600000000	2.10111700000000	0.00000000000000	0.00000000000000	0.00000000000000	0.00000000000000	18.85856900000000	0.00000000000000	0.00000000000000	0.60549000000000	0.00000000000000	
14.30827800000000	-43.28076200000000	797.91307300000005	53.80736900000000	0.09362100000000	0.00000000000000	0.10964900000000	-2.99973200000000	16.15878600000000	2.86558800000000	0.00000000000000	0.00000000000000	0.00000000000000	0.00000000000000	18.77356900000000	0.00000000000000	0.00000000000000	0.83613800000000	0.00000000000000	
14.30994800000000	-43.56629500000000	795.33920699999999	53.67081000000000	0.09306100000000	0.00000000000000	0.10956200000000	-3.76393100000000	21.65443700000000	3.69032500000000	0.00000000000000	0.00000000000000	0.00000000000000	0.00000000000000	18.68989300000000	0.00000000000000	0.00000000000000	1.08783900000000	0.00000000000000	
14.31160800000000	-43.86810100000000	792.63424699999996	53.51072800000000	0.09249900000000	0.00000000000000	0.10947200000000	-4.52968300000000	27.66805600000000	4.55088700000000	0.30832700000000	0.00000000000000	-0.06838900000000	0.00000000000000	18.60758700000000	0.00000000000000	0.00000000000000	2.44722400000000	0.00000000000000	
14.31328300000000	-44.18614400000000	789.79693699999996	53.32655200000000	0.09193500000000	0.00000000000000	0.10938000000000	-5.26593000000000	34.08230000000000	5.42068200000000	0.31460500000000	0.00000000000000	-0.06882000000000	0.00000000000000	18.52668500000000	0.00000000000000	0.00000000000000	2.96965400000000	0.00000000000000	
14.31494800000000	-44.52030400000000	786.82606199999998	53.11775200000000	0.09136900000000	0.00000000000000	0.10928400000000	-5.94244800000000	40.77200400000000	6.27299600000000	0.32016600000000	0.00000000000000	-0.06922100000000	0.00000000000000	18.44720700000000	0.00000000000000	0.00000000000000	3.49578100000000	0.00000000000000	
14.31661200000000	-44.87036700000000	783.72044500000004	52.88384700000000	0.09080000000000	0.00000000000000	0.10918600000000	-6.53199100000000	47.61458500000000	7.08297000000000	0.32511900000000	0.00000000000000	-0.06959700000000	0.00000000000000	18.36915700000000	0.00000000000000	0.00000000000000	4.01095000000000	0.00000000000000	
14.31827400000000	-45.23603000000000	780.47894699999995	52.62440300000000	0.09022800000000	0.00000000000000	0.10908500000000	-7.01203800000000	54.49935200000000	7.82926400000000	0.32955100000000	0.00000000000000	-0.06995200000000	0.00000000000000	18.29252400000000	0.00000000000000	0.00000000000000	4.50208500000000	0.00000000000000	
14.31994200000000	-45.61689200000000	777.10047299999997	52.33903700000000	0.08965200000000	0.00000000000000	0.10898100000000	-7.36595000000000	61.33471600000000	8.49524000000000	0.33353200000000	0.00000000000000	-0.07029000000000	0.00000000000000	18.21728400000000	0.00000000000000	0.00000000000000	4.95847600000000	0.00000000000000	
14.32160800000000	-46.01246000000000	773.58396600000003	52.02741700000000	0.08907300000000	0.00000000000000	0.10887400000000	-7.58350200000000	68.05281200000000	9.06960400000000	0.33712100000000	0.00000000000000	-0.07061400000000	0.00000000000000	18.14339400000000	0.00000000000000	0.00000000000000	5.37226300000000	0.00000000000000	
14.32328000000000	-46.42214200000000	769.92841399999998	51.68926800000000	0.08849000000000	0.00000000000000	0.10876400000000	-7.66081200000000	74.61144500000000	9.54650300000000	0.34036600000000	0.00000000000000	-0.07092500000000	0.00000000000000	18.07080100000000	0.00000000000000	0.00000000000000	5.73861100000000	0.00000000000000	
14.32494100000000	-46.84525300000000	766.13284799999997	51.32436900000000	0.08790300000000	0.00000000000000	0.10865100000000	-7.59975800000000	80.99360200000000	9.92517200000000	0.34330900000000	0.00000000000000	-0.07122600000000	0.00000000000000	17.99943200000000	0.00000000000000	0.00000000000000	6.05561300000000	0.00000000000000	
14.32660900000000	-47.28100700000000	762.19634299999996	50.93255600000000	0.08731200000000	0.00000000000000	0.10853500000000	-7.40703600000000	87.20497300000000	10.20921200000000	0.34598300000000	0.00000000000000	-0.07151800000000	0.00000000000000	17.92920100000000	0.00000000000000	0.00000000000000	6.32395500000000	0.00000000000000	
14.32828200000000	-47.72852400000000	758.11802599999999	50.51372500000000	0.08671600000000	0.00000000000000	0.10841600000000	-7.09296800000000	93.27003900000000	10.40564400000000	0.34841800000000	0.00000000000000	-0.07180200000000	0.00000000000000	17.86000800000000	0.00000000000000	0.00000000000000	6.54644200000000	0.00000000000000	
14.32994400000000	-48.18682800000000	753.89706899999999	50.06783100000000	0.08611500000000	0.00000000000000	0.10829500000000	-6.67023600000000	99.22727999999999	10.52383700000000	0.35063900000000	0.00000000000000	-0.07207900000000	0.00000000000000	17.79173600000000	0.00000000000000	0.00000000000000	6.72741600000000	0.00000000000000	
